<svg xmlns="http://www.w3.org/2000/svg" width="121" height="45" viewBox="0 0 121 45"><g><g><g><path fill="#b9b3a1" d="M23.934 38.492a.124.124 0 0 1 .122-.12h3.736a.123.123 0 0 1 .12.12v.158a.125.125 0 0 1-.12.122h-3.413v2.574h2.955a.123.123 0 0 1 .12.12v.159a.123.123 0 0 1-.12.12H24.38v2.76h3.413a.123.123 0 0 1 .12.12v.152a.123.123 0 0 1-.12.12h-3.736a.123.123 0 0 1-.122-.12z"/></g><g><path fill="#b9b3a1" d="M38.007 44.03l.084-.112c.065-.077.13-.102.205-.037a2.71 2.71 0 0 0 1.724.717 1.453 1.453 0 0 0 1.567-1.25c0-.828-.68-1.202-1.808-1.583-1.081-.381-1.8-.762-1.8-1.837 0-.698.56-1.65 2.014-1.65a3.064 3.064 0 0 1 1.6.476c.064.037.085.12.047.183l-.008.012a.84.84 0 0 0-.076.122.135.135 0 0 1-.205.046 2.732 2.732 0 0 0-1.373-.438c-1.147 0-1.576.708-1.576 1.24 0 .792.61 1.138 1.549 1.448 1.276.438 2.088.887 2.088 1.967a1.895 1.895 0 0 1-2.032 1.66 3.04 3.04 0 0 1-1.977-.762c-.057-.05-.103-.096-.028-.197"/></g><g><path fill="#b9b3a1" d="M53.282 38.773h-1.779c-.095 0-.122-.057-.122-.141v-.14a.118.118 0 0 1 .116-.12H55.512a.117.117 0 0 1 .12.113v.166a.118.118 0 0 1-.114.122H53.72v6.004c0 .064-.054.12-.147.12h-.169a.123.123 0 0 1-.12-.12z"/></g><g><path fill="#b9b3a1" d="M65.626 42.734l1.624-3.76h.018l1.594 3.76zm-1.37 2.051c-.027.073 0 .111.065.111h.262a.145.145 0 0 0 .129-.084l.747-1.714h3.56l.756 1.714c.023.05.074.084.13.084h.246c.1 0 .1-.055.083-.111l-2.844-6.488a.115.115 0 0 0-.12-.066h-.028a.13.13 0 0 0-.113.066l-2.87 6.488z"/></g><g><path fill="#b9b3a1" d="M80.752 38.773h-1.78c-.094 0-.12-.057-.12-.141v-.14a.117.117 0 0 1 .112-.12h4.018a.117.117 0 0 1 .119.113v.166a.118.118 0 0 1-.113.122h-1.799v6.004a.13.13 0 0 1-.14.12H80.873a.123.123 0 0 1-.12-.12z"/></g><g><path fill="#b9b3a1" d="M93.047 38.492a.125.125 0 0 1 .122-.12h3.735a.123.123 0 0 1 .12.12v.158a.125.125 0 0 1-.12.122h-3.413v2.574h2.956c.066.001.12.054.122.12v.159a.125.125 0 0 1-.122.12H93.49v2.76h3.413a.123.123 0 0 1 .12.12v.152a.123.123 0 0 1-.12.12H93.17a.125.125 0 0 1-.122-.12z"/></g><g><path fill="#b9b3a1" d="M17.054 5.174a8.514 8.514 0 0 0-3.684-.863 8.44 8.44 0 0 0-4.277 1.116 8.079 8.079 0 0 0-3.055 3.071 8.537 8.537 0 0 0-1.114 4.295 8.521 8.521 0 0 0 1.114 4.295 8.228 8.228 0 0 0 3.055 3.09 8.342 8.342 0 0 0 4.277 1.132 8.977 8.977 0 0 0 3.612-.79 10.309 10.309 0 0 0 3.217-2.193l2.838 3.164a14.828 14.828 0 0 1-4.6 3.18 12.962 12.962 0 0 1-5.318 1.169 13.164 13.164 0 0 1-6.65-1.725 12.657 12.657 0 0 1-4.743-4.69A12.819 12.819 0 0 1 0 12.865a12.5 12.5 0 0 1 1.762-6.54A12.633 12.633 0 0 1 6.56 1.69 13.624 13.624 0 0 1 13.298 0c1.815.003 3.611.37 5.283 1.077a12.974 12.974 0 0 1 4.421 2.985L20.2 7.583a9.52 9.52 0 0 0-3.145-2.408"/></g><g><path fill="#b9b3a1" d="M35.486 4.529h5.68c1.479-.099 2.948.306 4.168 1.15a4.154 4.154 0 0 1 1.436 3.45 4.303 4.303 0 0 1-1.436 3.522 6.404 6.404 0 0 1-4.169 1.186h-5.679zm16.426 20.95l-5.534-8.337a7.806 7.806 0 0 0 3.72-3.126 9.472 9.472 0 0 0 1.275-5.03c.002-2.756-.883-4.888-2.657-6.398-1.774-1.51-4.29-2.264-7.547-2.264H30.673V25.48h4.817v-7.404h5.68c.299.005.598-.006.897-.035l4.345 7.439z"/></g><g><path fill="#b9b3a1" d="M60.008.323h18.439v4.205H64.82v6.218h12.22v4.203H64.82v6.327h14.052v4.205H60.008z"/></g><g><path fill="#b9b3a1" d="M101.98 28.088v-4.225h4.226v4.225z"/></g><g><path fill="#b9b3a1" d="M120.963.333l-6.258 20.573-1.407 4.551-.06-.059-9.077-9.075-9.133 9.105-.03.028-1.408-4.579L87.302.333h5.031l5.12 16.709 3.712-3.714 2.965-2.995 6.708 6.708 5.12-16.71z"/></g><g><path fill="#b9b3a1" d="M101.801 28.473V23.89h4.583v4.583z"/></g></g></g></svg>